<svg width="40" height="40" viewBox="0 0 40 40" fill="none" xmlns="http://www.w3.org/2000/svg">
  <rect width="40" height="40" rx="15" fill="#FBE7E7"/>
  <path d="M27.3249 17.4682C27.3249 17.4682 26.7819 24.2032 26.4669 27.0402C26.3169 28.3952 25.4799 29.1892 24.1089 29.2142C21.4999 29.2612 18.8879 29.2642 16.2799 29.2092C14.9609 29.1822 14.1379 28.3782 13.9909 27.0472C13.6739 24.1852 13.1339 17.4682 13.1339 17.4682" stroke="#FE554A" stroke-width="1.5" stroke-linecap="round" stroke-linejoin="round"/>
  <path d="M28.7082 14.2397H11.7502" stroke="#FE554A" stroke-width="1.5" stroke-linecap="round" stroke-linejoin="round"/>
  <path d="M25.4407 14.2397C24.6557 14.2397 23.9797 13.6847 23.8257 12.9157L23.5827 11.6997C23.4327 11.1387 22.9247 10.7507 22.3457 10.7507H18.1127C17.5337 10.7507 17.0257 11.1387 16.8757 11.6997L16.6327 12.9157C16.4787 13.6847 15.8027 14.2397 15.0177 14.2397" stroke="#FE554A" stroke-width="1.5" stroke-linecap="round" stroke-linejoin="round"/>
</svg>
