<svg width="322" height="302" viewBox="0 0 322 302" fill="none" xmlns="http://www.w3.org/2000/svg">
  <path d="M176.612 239.329H102.752V296.297H176.612V239.329Z" fill="#EBEBEB"/>
  <path d="M158.11 295.899C158.01 295.899 157.925 283.198 157.925 267.54C157.925 251.874 158.01 239.18 158.11 239.18C158.209 239.18 158.294 251.874 158.294 267.54C158.294 283.198 158.209 295.899 158.11 295.899Z" fill="#E0E0E0"/>
  <path d="M170.35 283.333H164.691V289.737H170.35V283.333Z" fill="#FAFAFA"/>
  <path d="M133.679 239.478H125.29V251.634H133.679V239.478Z" fill="#E0E0E0"/>
  <path d="M133.679 283.972H125.29V296.127H133.679V283.972Z" fill="#E0E0E0"/>
  <path d="M310.636 225.047H217.502V296.879H310.636V225.047Z" fill="#EBEBEB"/>
  <path d="M287.298 296.368C287.199 296.368 287.114 280.355 287.114 260.612C287.114 240.862 287.199 224.849 287.298 224.849C287.397 224.849 287.483 240.854 287.483 260.612C287.483 280.362 287.405 296.368 287.298 296.368Z" fill="#E0E0E0"/>
  <path d="M302.737 280.525H295.595V288.595H302.737V280.525Z" fill="#FAFAFA"/>
  <path d="M256.492 225.232H245.911V240.557H256.492V225.232Z" fill="#E0E0E0"/>
  <path d="M256.492 281.334H245.911V296.659H256.492V281.334Z" fill="#E0E0E0"/>
  <path d="M42.0831 227.161C45.8559 225.218 50.2881 224.963 54.4722 225.658C56.7203 226.026 59.0676 226.7 60.5923 228.388C62.1241 230.076 62.4148 233.047 60.6561 234.501C59.6136 235.366 58.1528 235.494 56.7983 235.48C53.5219 235.444 49.891 234.863 47.2671 236.834C45.7707 237.962 44.7779 239.827 42.9979 240.38C41.2534 240.919 39.2819 239.891 38.3529 238.316C37.4239 236.742 37.3955 234.77 37.8281 232.99C37.8352 232.99 38.2891 229.118 42.0831 227.161Z" fill="#EBEBEB"/>
  <path d="M33.4459 210.488C35.7507 213.779 40.2326 212.687 42.3105 210.68C44.3884 208.673 45.2677 205.758 46.062 202.978C47.8845 196.631 49.7284 189.979 48.3739 183.512C47.9696 181.583 47.2463 179.654 45.8847 178.221C44.5302 176.789 42.4381 175.938 40.5305 176.441C38.2683 177.037 36.8712 179.25 35.85 181.356C32.8644 187.54 31.2901 194.397 31.2617 201.269C31.2617 204.482 31.6376 207.843 33.4459 210.488Z" fill="#EBEBEB"/>
  <path d="M27.12 215.211C29.6234 212.24 30.0985 207.907 28.9851 204.191C27.8717 200.468 25.3542 197.305 22.4537 194.723C19.0568 191.695 15.0571 189.334 10.7596 187.823C9.0718 187.228 7.2847 186.76 5.5047 186.93C3.7176 187.1 1.92342 188.015 1.0937 189.596C-0.140251 191.944 1.04405 194.787 2.32055 197.113C4.5686 201.205 7.13578 205.12 10.0008 208.807C12.3056 211.772 14.9366 214.701 18.4469 216.041C21.9573 217.381 25.5953 217.225 27.4604 214.793" fill="#EBEBEB"/>
  <path d="M33.2896 260.151C33.3321 260.151 33.403 259.619 33.4952 258.655C33.6016 257.563 33.7364 256.201 33.8924 254.57C34.0838 252.854 34.332 250.811 34.8072 248.585C35.2823 246.365 36.0269 243.961 36.9843 241.514C37.9771 239.089 39.1827 236.883 40.594 235.118C41.9981 233.345 43.6221 232.061 45.1539 231.324C46.6786 230.572 48.0473 230.26 48.9976 230.125C49.9549 230.026 50.4868 229.955 50.4868 229.912C50.4868 229.87 49.9549 229.863 48.9692 229.891C47.9976 229.955 46.5722 230.203 44.9624 230.934C43.3455 231.65 41.6223 232.955 40.1472 234.763C38.665 236.564 37.4169 238.819 36.4099 241.287C35.4383 243.769 34.7008 246.202 34.2469 248.471C33.7931 250.733 33.5874 252.804 33.4527 254.535C33.325 256.265 33.2754 257.669 33.247 258.641C33.2399 259.605 33.247 260.144 33.2896 260.151Z" fill="#E0E0E0"/>
  <path d="M33.5735 257.008C33.5948 257.008 33.609 256.767 33.6161 256.313C33.6161 255.788 33.6161 255.136 33.609 254.327C33.6019 252.604 33.6019 250.115 33.6941 247.037C33.843 240.882 34.3749 234.258 35.4032 224.911C36.3747 216.125 37.6725 205.906 39.0483 199.261C39.3461 197.75 39.6369 196.389 39.9206 195.197C40.1901 194.006 40.417 192.978 40.6368 192.141C40.8283 191.354 40.9772 190.715 41.0978 190.212C41.1971 189.772 41.2396 189.531 41.2183 189.524C41.1971 189.517 41.112 189.744 40.9772 190.176C40.8283 190.673 40.6368 191.304 40.4028 192.077C40.1475 192.9 39.8851 193.928 39.5873 195.112C39.2752 196.296 38.949 197.658 38.6228 199.161C37.2612 205.182 35.8287 213.6 34.7933 222.961C33.765 232.322 33.3041 240.846 33.2615 247.016C33.2261 250.101 33.2899 252.597 33.3679 254.32C33.4175 255.129 33.4601 255.781 33.4884 256.306C33.5239 256.767 33.5523 257.008 33.5735 257.008Z" fill="#E0E0E0"/>
  <path d="M33.6158 240.571C33.6583 240.571 33.6512 239.834 33.6016 238.501C33.5236 237.167 33.3392 235.245 32.9633 232.884C32.5662 230.53 32.006 227.735 31.1337 224.7C30.7578 223.31 29.8643 219.984 27.7084 215.013C24.8718 208.276 21.0139 202.773 17.6596 199.362C16.8724 198.454 15.993 197.802 15.2981 197.163C14.9364 196.858 14.6173 196.553 14.2911 196.305C13.9648 196.078 13.6599 195.866 13.3762 195.674C12.2699 194.922 11.653 194.518 11.6317 194.554C11.5324 194.688 14.1067 196.199 17.3546 199.66C20.5884 203.106 24.3399 208.574 27.1553 215.254C28.7225 218.878 29.8218 222.105 30.5947 224.849C31.4954 227.856 32.0911 230.622 32.5378 232.955C32.9633 235.288 33.2116 237.196 33.3605 238.515C33.481 239.834 33.5732 240.571 33.6158 240.571Z" fill="#E0E0E0"/>
  <path d="M16.6243 267.065L18.2766 289.631H47.2602L48.9125 267.065H16.6243Z" fill="#EBEBEB"/>
  <path d="M52.3661 258.172H13.823V267.065H52.3661V258.172Z" fill="#EBEBEB"/>
  <path d="M13.823 288.772V291.233H15.6385H51.7349V288.772H13.823Z" fill="#E0E0E0"/>
  <path d="M17.4113 295.304L15.6384 290.964H50.352L48.2813 295.304H17.4113Z" fill="#E0E0E0"/>
  <path d="M48.3735 274.441C48.3806 274.448 48.3309 274.519 48.2387 274.647C48.1253 274.803 47.9834 274.987 47.8061 275.221C47.3948 275.746 46.8275 276.469 46.1183 277.384L46.0403 277.483L45.9694 277.384C44.9057 275.916 43.4873 273.952 41.8208 271.647H42.0619C40.828 273.392 39.4522 275.342 37.9771 277.434L37.8495 277.618L37.7076 277.448C36.1971 275.654 34.566 273.704 32.864 271.682L33.1406 271.675C33.0555 271.782 32.9633 271.895 32.8711 272.009C31.3677 273.895 29.9139 275.718 28.5381 277.441L28.3963 277.625L28.2616 277.434C26.7936 275.356 25.4178 273.406 24.1768 271.654L24.4179 271.668C22.4039 273.966 20.6948 275.909 19.3828 277.405L19.2906 277.505L19.2197 277.391C18.5531 276.278 18.0283 275.384 17.6454 274.746C17.4823 274.455 17.3475 274.228 17.2412 274.044C17.149 273.881 17.1064 273.796 17.1206 273.796C17.1277 273.789 17.1844 273.867 17.2908 274.023C17.4114 274.2 17.5532 274.427 17.7376 274.704C18.1418 275.335 18.6949 276.207 19.3899 277.306L19.2339 277.292C20.5246 275.781 22.2053 273.81 24.1839 271.491L24.3115 271.342L24.425 271.498C25.6802 273.25 27.0631 275.186 28.5452 277.257L28.2687 277.249C29.6373 275.526 31.0911 273.697 32.5875 271.81C32.6797 271.697 32.7718 271.583 32.8569 271.477L32.9917 271.307L33.1335 271.477C34.8284 273.505 36.4595 275.455 37.9629 277.249L37.6934 277.264C39.1827 275.186 40.5727 273.25 41.8208 271.505L41.9413 271.335L42.0619 271.505C43.693 273.838 45.0829 275.824 46.1254 277.306L45.9765 277.299C46.714 276.413 47.3026 275.703 47.7352 275.193C47.9267 274.973 48.0827 274.796 48.2033 274.647C48.3096 274.498 48.3664 274.441 48.3735 274.441Z" fill="#F5F5F5"/>
  <path d="M49.3171 266.916C49.3171 267.016 42.0552 267.094 33.0914 267.094C24.1276 267.094 16.8657 267.016 16.8657 266.916C16.8657 266.817 24.1276 266.739 33.0914 266.739C42.0482 266.739 49.3171 266.817 49.3171 266.916Z" fill="#F5F5F5"/>
  <path d="M252.679 11.0277L246.736 11.0596L246.894 40.6317L252.837 40.5999L252.679 11.0277Z" fill="#E0E0E0"/>
  <path d="M210.639 11.108L195.25 11.1904L195.337 27.5154L210.726 27.433L210.639 11.108Z" fill="#EBEBEB"/>
  <path d="M225.957 11.0234L210.568 11.1058L210.656 27.4308L226.045 27.3484L225.957 11.0234Z" fill="#F5F5F5"/>
  <path d="M195.27 15.6936C205.496 15.7787 215.75 15.722 225.976 15.5518C226.189 15.5518 226.182 15.2256 225.976 15.2256C215.75 15.1688 205.496 15.2185 195.27 15.4099C195.092 15.417 195.092 15.6936 195.27 15.6936Z" fill="#E0E0E0"/>
  <path d="M213.619 27.1589L185.657 27.3087L185.728 40.6126L213.69 40.4628L213.619 27.1589Z" fill="#EBEBEB"/>
  <path d="M241.447 27.0102L213.484 27.16L213.556 40.4639L241.518 40.3141L241.447 27.0102Z" fill="#F5F5F5"/>
  <path d="M185.675 31.012C204.248 31.2247 222.892 31.0333 241.465 30.7354C241.678 30.7283 241.671 30.4092 241.465 30.4092C222.892 30.3099 204.248 30.3241 185.675 30.7283C185.491 30.7354 185.491 31.0049 185.675 31.012Z" fill="#E0E0E0"/>
  <path d="M283.546 40.6154H175.214V45.381H283.546V40.6154Z" fill="#E0E0E0"/>
  <path d="M197.347 42.9064H192.95V59.1675H197.347V42.9064Z" fill="#E0E0E0"/>
  <path d="M262.994 42.9064H258.598V59.1675H262.994V42.9064Z" fill="#E0E0E0"/>
  <path d="M258.478 2.00646e-05L252.536 0.0318604L252.754 40.7024L258.696 40.6706L258.478 2.00646e-05Z" fill="#EBEBEB"/>
  <path d="M267.763 7.57288L258.529 7.62238L258.706 40.5843L267.939 40.5348L267.763 7.57288Z" fill="#F5F5F5"/>
  <path d="M267.697 13.923C267.697 14.0081 265.626 14.0861 263.08 14.0861C260.527 14.0861 258.463 14.0152 258.463 13.923C258.463 13.8379 260.527 13.7599 263.08 13.7599C265.633 13.767 267.697 13.8379 267.697 13.923Z" fill="#E0E0E0"/>
  <path d="M267.697 12.5391C267.697 12.6242 265.626 12.7023 263.08 12.7023C260.527 12.7023 258.463 12.6313 258.463 12.5391C258.463 12.454 260.527 12.376 263.08 12.376C265.633 12.376 267.697 12.447 267.697 12.5391Z" fill="#E0E0E0"/>
  <path d="M267.697 35.5733C267.697 35.6584 265.626 35.7364 263.08 35.7364C260.527 35.7364 258.463 35.6655 258.463 35.5733C258.463 35.4882 260.527 35.4102 263.08 35.4102C265.633 35.4172 267.697 35.4882 267.697 35.5733Z" fill="#E0E0E0"/>
  <path d="M267.697 34.1905C267.697 34.2756 265.626 34.3536 263.08 34.3536C260.527 34.3536 258.463 34.2826 258.463 34.1905C258.463 34.1054 260.527 34.0273 263.08 34.0273C265.633 34.0273 267.697 34.0983 267.697 34.1905Z" fill="#E0E0E0"/>
  <path d="M263.229 31.1701C263.144 31.1701 263.066 27.8441 263.066 23.7451C263.066 19.6462 263.137 16.3202 263.229 16.3202C263.321 16.3202 263.392 19.6462 263.392 23.7451C263.392 27.8441 263.321 31.1701 263.229 31.1701Z" fill="#E0E0E0"/>
  <path d="M277.852 15.667H267.803V40.5445H277.852V15.667Z" fill="#EBEBEB"/>
  <path d="M255.414 8.65383C256.358 8.65383 257.123 7.88864 257.123 6.94474C257.123 6.00084 256.358 5.23566 255.414 5.23566C254.47 5.23566 253.705 6.00084 253.705 6.94474C253.705 7.88864 254.47 8.65383 255.414 8.65383Z" fill="#E0E0E0"/>
  <path d="M255.946 11.6461H254.889V35.8428H255.946V11.6461Z" fill="#E0E0E0"/>
  <path d="M313.835 296.489C313.835 296.588 245.677 296.673 161.613 296.673C77.5274 296.673 9.37671 296.588 9.37671 296.489C9.37671 296.389 77.5203 296.304 161.613 296.304C245.67 296.304 313.835 296.389 313.835 296.489Z" fill="#263238"/>
  <path d="M90.1299 36.2251C93.4559 40.2673 95.3068 45.501 95.25 50.7346C95.2146 53.7273 94.6685 57.0249 96.406 59.4573C97.725 61.3012 100.136 62.2302 101.207 64.23C102.498 66.6341 101.399 69.6764 102.193 72.2861C103.32 75.9879 107.653 77.541 110.228 80.4273C112.461 82.9378 113.284 86.6041 112.383 89.8379C111.483 93.0717 108.909 95.7807 105.732 96.8728C104.03 97.4614 102.079 97.5891 100.469 96.7877C98.732 95.9226 97.6541 94.1426 96.7818 92.4051C95.0657 88.9869 80.0527 70.5132 79.2017 66.7901" fill="#263238"/>
  <path d="M79.2085 31.8707C73.0671 30.885 67.1669 34.9556 64.5784 40.6147C61.99 46.2668 61.919 52.6989 61.7276 58.9182C61.5361 65.1305 61.1035 71.6194 57.9265 76.9736C55.9124 80.3705 52.7921 83.3419 52.3028 87.2636C51.8631 90.7668 53.6786 94.2985 53.0758 97.7804C52.551 100.809 50.2391 103.447 50.3313 106.524C50.4448 110.226 54.2459 113.013 57.9477 113.113C61.6496 113.212 65.1032 111.276 68.0037 108.971C72.7125 105.241 76.5278 100.39 79.0454 94.9438" fill="#263238"/>
  <path d="M69.1025 46.5072C68.2941 40.0325 72.9745 34.1181 79.5485 33.487C85.7466 32.8983 91.2497 37.5079 92.1787 43.6635C92.9943 49.0602 93.6892 54.5066 93.668 56.4852C93.59 62.4492 90.1009 64.7753 88.6896 65.4703C88.3634 65.6263 87.477 65.8107 87.1224 65.8603C87.1011 65.8603 87.0869 65.8816 87.0869 65.91L88.4131 72.7605C89.0158 77.2495 86.5125 81.2492 82.0306 81.9016C77.5345 82.554 74.0241 79.1075 73.3362 74.6185L69.1025 46.5072Z" fill="#FFBE9D"/>
  <path d="M90.9657 46.28C90.8664 46.4219 90.0793 45.9964 89.0722 46.1453C88.0652 46.28 87.3986 46.9112 87.271 46.7977C87.2071 46.7481 87.2922 46.514 87.583 46.2304C87.8667 45.9467 88.3773 45.6418 89.0013 45.5567C89.6325 45.4716 90.1927 45.6205 90.5331 45.812C90.8806 46.0105 91.0154 46.2233 90.9657 46.28Z" fill="#263238"/>
  <path d="M81.9879 48.4644C81.8886 48.6062 81.1015 48.1807 80.0945 48.3296C79.0874 48.4644 78.4208 49.0955 78.2932 48.982C78.2294 48.9324 78.3145 48.6984 78.6052 48.4147C78.8889 48.1311 79.3995 47.8261 80.0235 47.741C80.6547 47.6559 81.2149 47.8048 81.5553 48.0034C81.8957 48.1949 82.0376 48.4005 81.9879 48.4644Z" fill="#263238"/>
  <path d="M85.6688 53.8752C85.6546 53.8185 86.2645 53.6199 87.2644 53.3433C87.5197 53.2795 87.7537 53.1944 87.775 53.01C87.8105 52.8115 87.6616 52.5562 87.4914 52.2725C87.1581 51.6839 86.8106 51.0669 86.4418 50.4216C84.9738 47.7835 83.8746 45.5922 83.981 45.5354C84.0874 45.4787 85.3639 47.5707 86.8318 50.2088C87.1864 50.8613 87.5268 51.4853 87.853 52.081C87.9949 52.3576 88.2076 52.6696 88.1367 53.0738C88.0941 53.2795 87.924 53.4426 87.7679 53.5135C87.6119 53.5915 87.463 53.6128 87.3424 53.6412C86.3141 53.8397 85.683 53.9319 85.6688 53.8752Z" fill="#263238"/>
  <path d="M87.0796 65.8743C87.0796 65.8743 83.2289 66.7608 77.9243 64.5411C77.9243 64.5411 80.2149 69.4698 87.4342 67.7181L87.0796 65.8743Z" fill="#EB996E"/>
  <path d="M81.4769 45.819C81.4202 46.1098 80.3919 46.124 79.2289 46.4431C78.0588 46.7338 77.151 47.2232 76.9596 46.9962C76.8745 46.8899 77.0021 46.6062 77.3496 46.2871C77.6971 45.9679 78.2644 45.6275 78.9665 45.4432C79.6686 45.2588 80.3352 45.2801 80.789 45.3935C81.25 45.4999 81.4982 45.6843 81.4769 45.819Z" fill="#263238"/>
  <path d="M90.1365 44.047C89.9946 44.3023 89.2642 44.1675 88.4203 44.2739C87.5764 44.3519 86.8956 44.6497 86.697 44.437C86.6119 44.3306 86.6899 44.0824 86.9665 43.82C87.2431 43.5576 87.7253 43.3094 88.2997 43.2385C88.8741 43.1747 89.406 43.3094 89.7322 43.5009C90.0655 43.6995 90.2003 43.9264 90.1365 44.047Z" fill="#263238"/>
  <path d="M79.797 49.7694C79.8679 50.2091 80.2934 50.514 80.7544 50.4502C81.2153 50.3864 81.5273 49.9821 81.4564 49.5425C81.3855 49.1028 80.96 48.7978 80.4991 48.8617C80.0452 48.9255 79.7261 49.3297 79.797 49.7694Z" fill="#263238"/>
  <path d="M88.7394 47.8335C88.8103 48.2732 89.2358 48.5782 89.6967 48.5143C90.1577 48.4505 90.4697 48.0463 90.3988 47.6066C90.3279 47.1669 89.9024 46.862 89.4414 46.9258C88.9876 46.9896 88.6684 47.3938 88.7394 47.8335Z" fill="#263238"/>
  <path d="M87.2573 55.847C86.6049 55.6556 86.0518 55.9889 85.7823 56.4569C85.5199 56.925 85.5837 57.5703 85.9596 57.9533C86.3425 58.3362 87.0162 58.4 87.4346 58.0596C87.7183 57.8256 87.8601 57.4568 87.8956 57.0952C87.931 56.7619 87.8743 56.4002 87.6687 56.1307C87.463 55.8612 87.073 55.7194 86.768 55.8541" fill="#EB996E"/>
  <path d="M91.3987 38.8413C90.9377 36.6003 89.3918 34.6856 87.5125 33.3736C85.9169 32.2603 84.0234 31.5298 82.0803 31.466C80.1372 31.4093 78.1444 32.0617 76.7332 33.4091C75.6907 34.4019 75.1588 35.8132 75.1163 37.2528L75.2298 36.2599C74.939 37.0755 74.939 37.9548 75.2439 38.7562C75.2439 38.7562 75.2439 38.7562 75.2439 38.7633V38.7562C75.407 39.1888 75.6056 39.6285 75.7829 40.0611C76.2793 41.3021 77.2438 42.3446 78.4352 42.9474C78.9883 43.2239 79.5911 43.4083 80.2081 43.38C80.8251 43.3516 81.442 43.0892 81.8179 42.5999C82.3498 41.8978 82.2859 40.9333 82.2008 40.0611C82.7256 40.8837 83.2859 41.7418 84.1369 42.2311C84.9879 42.7204 86.2076 42.6992 86.8033 41.9262C87.3777 41.1745 87.1508 40.0965 86.8175 39.2101C87.3565 40.0398 88.1365 40.7064 89.0301 41.1248C89.5265 41.3517 90.108 41.5078 90.6115 41.2879C91.037 41.1035 91.3207 40.678 91.4342 40.2242C91.5405 39.7703 91.4909 39.2952 91.3987 38.8413Z" fill="#263238"/>
  <path d="M86.2714 40.6994C86.2075 40.6994 86.2146 39.8555 85.9451 38.5506C85.6686 37.267 85.0232 35.4445 83.4985 34.1042C82.7468 33.4446 81.8816 32.9837 81.0448 32.778C80.208 32.5724 79.4066 32.5936 78.7613 32.7213C77.4564 32.9837 76.8253 33.6077 76.7898 33.5368C76.7756 33.5226 76.9104 33.3595 77.2224 33.1326C77.5345 32.9057 78.0309 32.6362 78.7046 32.466C79.3783 32.3029 80.2222 32.2462 81.1228 32.4447C82.0235 32.6433 82.9525 33.1255 83.7396 33.8205C85.3494 35.2388 85.9877 37.1678 86.2004 38.4939C86.3068 39.1676 86.3352 39.7207 86.3281 40.1037C86.3281 40.4866 86.2997 40.6994 86.2714 40.6994Z" fill="#455A64"/>
  <path d="M151.586 123.381L124.319 112.567C124.319 112.567 110.348 94.249 110.639 93.8944L100.831 104.631L115.085 123.92L148.111 131.65L163.748 131.778C162.543 125.764 151.586 123.381 151.586 123.381Z" fill="#FFBE9D"/>
  <path d="M92.1576 71.1222L88.4415 69.6826L72.4002 71.7179V74.5546L71.9393 74.6113C71.9393 74.6113 66.9539 75.519 62.1103 78.4266C56.2455 81.9512 53.1961 88.7379 54.2811 95.4962C54.9335 99.5526 56.1958 104.481 58.6354 107.332C63.2946 112.779 67.5496 106.049 67.5496 106.049C67.5496 106.049 70.4713 112.722 70.3082 115.87C70.1664 118.516 68.9962 124.019 68.6204 125.735C68.5566 126.026 68.748 126.302 69.0388 126.359L102.88 132.614L103.043 124.345L101.965 90.3264L100.476 77.1076C100.476 77.1076 100.526 70.796 92.1576 71.1222Z" fill="#15C000" fill-opacity="0.84"/>
  <path d="M99.9585 74.9102L112.865 93.5541L102.476 106.206L99.9585 74.9102Z" fill="#15C000" fill-opacity="0.84"/>
  <path d="M102.724 114.141C102.696 114.141 102.682 113.708 102.675 112.935C102.668 112.098 102.653 110.992 102.632 109.659C102.568 106.893 102.412 103.078 101.859 98.8938C101.327 94.7097 100.512 90.9724 99.8876 88.2776C99.5827 86.9798 99.3274 85.9019 99.1359 85.0864C98.9586 84.3346 98.8735 83.9162 98.8948 83.9091C98.9161 83.9021 99.0508 84.3134 99.2707 85.0509C99.4905 85.7955 99.7884 86.8735 100.136 88.2138C100.824 90.8944 101.682 94.6388 102.221 98.8441C102.774 103.042 102.887 106.879 102.887 109.652C102.873 111.035 102.852 112.155 102.809 112.935C102.781 113.715 102.753 114.141 102.724 114.141Z" fill="#263238"/>
  <path d="M70.9748 85.7951C70.9748 85.8518 69.9961 85.8447 68.4218 85.9298C66.8546 86.0149 64.6845 86.2277 62.3372 86.7099C59.9898 87.1992 57.9191 87.8587 56.444 88.4119C54.969 88.9579 54.0754 89.3551 54.0541 89.3054C54.0399 89.2842 54.2527 89.1565 54.6498 88.9508C55.0399 88.7452 55.6214 88.4757 56.3518 88.1637C57.8127 87.5467 59.8976 86.8375 62.2663 86.3482C64.642 85.8589 66.8333 85.6816 68.4147 85.6674C69.209 85.6603 69.8472 85.6745 70.2869 85.71C70.7337 85.7383 70.9748 85.7667 70.9748 85.7951Z" fill="#FAFAFA"/>
  <path d="M100.866 94.3267C100.873 94.3763 100.263 94.5253 99.2561 94.6742C98.249 94.8302 96.852 94.9791 95.306 95.0288C93.7529 95.0784 92.3488 95.0288 91.3347 94.9437C90.3206 94.8586 89.7036 94.7522 89.7036 94.7025C89.7107 94.6458 90.3348 94.66 91.3418 94.6813C92.3488 94.7025 93.7458 94.7096 95.2847 94.66C96.8236 94.6033 98.2136 94.4969 99.2206 94.4118C100.235 94.3338 100.859 94.277 100.866 94.3267Z" fill="#FAFAFA"/>
  <path d="M106.788 85.8944C106.852 85.9653 105.71 87.107 104.022 88.1353C102.334 89.1707 100.795 89.6671 100.767 89.582C100.724 89.4827 102.171 88.8374 103.831 87.8233C105.49 86.8092 106.717 85.8093 106.788 85.8944Z" fill="#FAFAFA"/>
  <path d="M101.575 77.2497C101.639 77.3135 100.114 78.6822 97.8166 79.6467C95.526 80.6253 93.4836 80.7671 93.4836 80.682C93.4623 80.5686 95.4409 80.2707 97.6747 79.3133C99.9157 78.3631 101.504 77.1575 101.575 77.2497Z" fill="#FAFAFA"/>
  <path d="M102.277 108.766C102.284 108.787 102.05 108.914 101.603 109.12C101.164 109.326 100.511 109.595 99.6958 109.893C98.0647 110.496 95.7387 111.163 93.1077 111.574C90.4767 111.978 88.0584 112.035 86.321 111.95C85.4487 111.907 84.7466 111.85 84.2644 111.787C83.7822 111.723 83.5198 111.68 83.5198 111.652C83.5269 111.588 84.5977 111.68 86.3281 111.694C88.0584 111.709 90.4483 111.609 93.0509 111.212C95.6536 110.808 97.9655 110.184 99.6107 109.652C101.256 109.113 102.256 108.709 102.277 108.766Z" fill="#FAFAFA"/>
  <path d="M102.54 118.375C102.547 118.389 102.44 118.446 102.235 118.545C101.994 118.658 101.696 118.8 101.334 118.97C100.554 119.339 99.398 119.821 97.9513 120.36C96.5046 120.906 94.753 121.474 92.7815 122.013C90.8029 122.538 88.6116 123.02 86.2785 123.389C83.9453 123.743 81.7044 123.942 79.662 124.048C77.6196 124.126 75.7758 124.119 74.2369 124.041C72.6909 123.963 71.4499 123.857 70.5918 123.743C70.2017 123.686 69.8755 123.644 69.606 123.608C69.3791 123.573 69.2656 123.552 69.2656 123.537C69.2656 123.523 69.3862 123.523 69.6131 123.537C69.8826 123.552 70.2088 123.58 70.6059 123.601C71.464 123.672 72.7122 123.743 74.244 123.786C75.7828 123.835 77.6125 123.814 79.6478 123.715C81.676 123.594 83.9028 123.389 86.2217 123.034C88.5407 122.665 90.7249 122.19 92.6964 121.694C94.6608 121.176 96.4124 120.637 97.8662 120.126C99.32 119.623 100.483 119.176 101.277 118.85C101.646 118.708 101.951 118.587 102.199 118.488C102.419 118.403 102.533 118.368 102.54 118.375Z" fill="#FAFAFA"/>
  <path d="M40.3173 269.134L36.4878 286.459L29.5025 299.288C28.999 300.21 29.382 301.373 30.3393 301.812C30.8783 302.06 31.4882 302.032 31.9988 301.734C35.2467 299.855 47.1678 292.891 47.3735 291.607C47.6146 290.118 52.6284 273.602 52.6284 273.602L40.3173 269.134Z" fill="#15C000" fill-opacity="0.84"/>
  <g opacity="0.6">
    <path opacity="0.6" d="M30.3394 301.813L47.6642 290.453L47.4869 291.183C47.3309 291.814 46.9622 292.374 46.4374 292.75C45.0261 293.764 41.0761 296.495 32.0626 301.757C31.5308 302.054 30.8854 302.083 30.3394 301.813Z" fill="white"/>
  </g>
  <g opacity="0.6">
    <g opacity="0.6">
      <path opacity="0.6" d="M45.4864 284.019C44.9829 284.211 44.678 284.828 44.8553 285.346C45.0255 285.856 45.6566 286.168 46.1601 285.984C46.6707 285.799 47.0537 285.069 46.8267 284.58C46.5998 284.09 45.841 283.764 45.3942 284.062" fill="white"/>
    </g>
  </g>
  <path d="M36.1255 295.245C36.0191 295.266 35.8489 294.274 34.9412 293.536C34.0548 292.77 33.0478 292.784 33.0478 292.671C33.0407 292.628 33.296 292.543 33.7144 292.586C34.1257 292.621 34.7001 292.827 35.1894 293.238C35.6858 293.657 35.9766 294.181 36.0901 294.579C36.2035 294.983 36.1681 295.245 36.1255 295.245Z" fill="#263238"/>
  <path d="M34.3312 297.253C34.2319 297.31 33.8135 296.615 32.9838 296.14C32.1682 295.65 31.3527 295.622 31.3527 295.509C31.3243 295.409 32.2462 295.246 33.1823 295.799C34.1255 296.345 34.4305 297.232 34.3312 297.253Z" fill="#263238"/>
  <path d="M39.1324 292.849C39.0331 292.913 38.3949 291.835 37.1751 290.984C35.9624 290.111 34.7427 289.877 34.7639 289.764C34.7569 289.665 36.0972 289.743 37.402 290.672C38.714 291.586 39.2317 292.82 39.1324 292.849Z" fill="#263238"/>
  <path d="M40.7424 287.68C40.6715 287.772 39.8134 287.141 38.5865 286.794C37.3597 286.425 36.303 286.503 36.2959 286.382C36.2676 286.283 37.381 286.028 38.7 286.418C40.012 286.794 40.8133 287.616 40.7424 287.68Z" fill="#263238"/>
  <path d="M41.9979 282.622C41.9199 282.707 41.1043 281.898 39.7782 281.636C38.4592 281.345 37.3883 281.757 37.3529 281.65C37.3316 281.608 37.5727 281.437 38.0266 281.303C38.4804 281.168 39.147 281.104 39.8562 281.253C40.5654 281.402 41.154 281.728 41.5157 282.033C41.8773 282.338 42.0262 282.593 41.9979 282.622Z" fill="#263238"/>
  <path d="M40.0402 280.68C40.0189 280.673 40.0331 280.432 40.1749 280.02C40.3168 279.609 40.5863 279.027 41.111 278.439C41.3734 278.162 41.6713 277.801 42.2102 277.694C42.4797 277.637 42.8201 277.772 42.9691 278.049C43.118 278.318 43.1109 278.616 43.0542 278.893C42.7705 279.985 41.572 280.807 40.3026 280.666C39.0332 280.495 38.09 279.517 37.8276 278.453C37.778 278.183 37.778 277.864 37.9836 277.609C38.1893 277.347 38.5651 277.318 38.7992 277.418C39.2956 277.616 39.5438 277.992 39.792 278.283C40.2671 278.907 40.5153 279.495 40.643 279.907C40.7706 280.318 40.7848 280.559 40.7636 280.566C40.6926 280.595 40.5366 279.616 39.5793 278.453C39.331 278.176 39.0545 277.843 38.6999 277.715C38.5226 277.652 38.3524 277.687 38.2531 277.815C38.1538 277.935 38.1396 278.162 38.1822 278.375C38.4091 279.247 39.2743 280.141 40.3451 280.268C41.416 280.403 42.4655 279.673 42.7067 278.8C42.7634 278.588 42.7563 278.361 42.6712 278.205C42.5932 278.056 42.4301 277.978 42.2528 278.006C41.884 278.056 41.572 278.368 41.3096 278.623C40.2813 279.722 40.1182 280.722 40.0402 280.68Z" fill="#263238"/>
  <g opacity="0.3">
    <path opacity="0.3" d="M39.8705 271.013L39.0408 274.985L51.5859 277.069L52.6355 273.602L40.3173 269.134L39.8705 271.013Z" fill="black"/>
  </g>
  <path d="M96.3779 275.547L95.3425 289.389C95.3425 289.389 109.065 295.091 109.129 297.672L82.2087 296.63L82.9392 274.993L96.3779 275.547Z" fill="#15C000" fill-opacity="0.84"/>
  <g opacity="0.6">
    <g opacity="0.6">
      <path opacity="0.6" d="M87.0654 287.9C86.5406 288.021 86.1577 288.595 86.2569 289.127C86.3562 289.659 86.9377 290.049 87.4625 289.943C87.9944 289.829 88.4695 289.155 88.3135 288.638C88.1575 288.12 87.4483 287.695 86.9661 287.929" fill="white"/>
    </g>
  </g>
  <g opacity="0.6">
    <path opacity="0.6" d="M82.2083 296.63L82.3643 294.453L108.114 296.268C108.114 296.268 109.291 296.836 109.121 297.672L82.2083 296.63Z" fill="white"/>
  </g>
  <path d="M95.7819 289.268C95.7748 289.403 95.1152 289.431 94.4486 289.829C93.7749 290.212 93.4203 290.765 93.2998 290.708C93.1792 290.68 93.4062 289.9 94.2146 289.431C95.0301 288.963 95.8173 289.148 95.7819 289.268Z" fill="#263238"/>
  <path d="M98.5616 290.544C98.59 290.671 98.0085 290.877 97.5404 291.416C97.0582 291.941 96.9235 292.536 96.7887 292.529C96.6611 292.544 96.6043 291.771 97.2 291.111C97.7886 290.444 98.5616 290.423 98.5616 290.544Z" fill="#263238"/>
  <path d="M100.036 293.99C99.9156 294.012 99.7596 293.352 100.121 292.643C100.483 291.934 101.114 291.672 101.164 291.785C101.235 291.898 100.816 292.267 100.526 292.849C100.228 293.43 100.164 293.983 100.036 293.99Z" fill="#263238"/>
  <path d="M95.6679 286.093C95.6111 286.213 95.0154 286.008 94.2637 286.029C93.5191 286.036 92.9305 286.263 92.8667 286.15C92.7958 286.05 93.3773 285.589 94.2566 285.575C95.136 285.547 95.7388 285.994 95.6679 286.093Z" fill="#263238"/>
  <g opacity="0.3">
    <path opacity="0.3" d="M96.1713 278.29L95.9869 280.758L82.761 280.119L82.8532 277.268L96.1713 278.29Z" fill="black"/>
  </g>
  <path d="M95.8306 283.292C95.8306 283.348 95.3058 283.405 94.4832 283.235C94.0719 283.15 93.5896 282.994 93.0861 282.745C92.8379 282.625 92.5826 282.476 92.3273 282.306C92.2068 282.221 92.0649 282.136 91.9302 281.972C91.7883 281.831 91.7174 281.476 91.8947 281.27C92.0436 281.072 92.2848 280.987 92.4833 280.994C92.6819 280.994 92.8379 281.043 92.9868 281.086C93.2847 281.171 93.5613 281.277 93.8166 281.405C94.3201 281.66 94.7314 281.972 95.0292 282.27C95.632 282.873 95.8235 283.37 95.7809 283.398C95.7171 283.44 95.4335 283.015 94.8165 282.511C94.5115 282.263 94.1144 282.001 93.6393 281.788C93.4052 281.682 93.1429 281.59 92.8734 281.519C92.5897 281.433 92.3486 281.419 92.2706 281.547C92.2422 281.597 92.2351 281.611 92.2919 281.696C92.3486 281.774 92.4621 281.852 92.5826 281.937C92.8166 282.1 93.0507 282.249 93.2776 282.37C93.7385 282.618 94.1782 282.795 94.5612 282.923C95.3271 283.164 95.8306 283.221 95.8306 283.292Z" fill="#263238"/>
  <path d="M95.6463 283.477C95.5967 283.498 95.3555 283.016 95.3413 282.158C95.3343 281.732 95.3981 281.221 95.5825 280.69C95.6747 280.42 95.8023 280.151 95.9583 279.881C96.1285 279.619 96.3342 279.271 96.8448 279.236C97.1143 279.236 97.327 279.456 97.3908 279.633C97.4759 279.817 97.483 279.973 97.5114 280.129C97.5468 280.448 97.5327 280.753 97.4759 281.037C97.3696 281.604 97.1143 282.072 96.8448 282.406C96.2916 283.079 95.7385 283.221 95.7243 283.172C95.6818 283.101 96.1498 282.867 96.5824 282.214C96.7951 281.888 96.9866 281.463 97.0575 280.966C97.093 280.718 97.1001 280.456 97.0646 280.186C97.0363 279.895 96.937 279.661 96.8235 279.69C96.6888 279.683 96.4547 279.888 96.3342 280.115C96.1853 280.349 96.0647 280.59 95.9725 280.831C95.7881 281.314 95.6959 281.775 95.6605 282.165C95.6037 282.959 95.7243 283.455 95.6463 283.477Z" fill="#263238"/>
  <path d="M68.5068 126.255C68.5068 126.255 64.2305 126.439 61.4151 140.998C58.5997 155.55 36.9561 273.463 36.9561 273.463L52.6357 273.605L82.2078 161.5L80.2434 277.066L96.1713 278.285C96.1713 278.285 108.121 150.43 108.234 142.991C108.376 133.715 103.05 124.333 103.05 124.333L68.5068 126.255Z" fill="#263238"/>
  <path d="M90.058 125.013C90.1573 125.034 88.5333 133.346 86.4271 143.579C84.3209 153.812 82.5338 162.095 82.4345 162.074C82.3352 162.053 83.9592 153.741 86.0654 143.501C88.1645 133.275 89.9587 124.992 90.058 125.013Z" fill="#455A64"/>
  <path d="M92.498 127.091C92.4696 127.055 92.9235 126.921 93.4057 127.353C93.6326 127.566 93.8525 127.913 93.8312 128.353C93.8241 128.807 93.4837 129.24 93.0298 129.431C92.5831 129.623 92.0299 129.566 91.6966 129.254C91.3633 128.956 91.2711 128.552 91.2782 128.247C91.3066 127.594 91.7179 127.367 91.725 127.41C91.7746 127.445 91.491 127.715 91.5406 128.24C91.5619 128.488 91.6753 128.8 91.9164 128.991C92.1505 129.19 92.5405 129.232 92.8809 129.084C93.2284 128.935 93.4695 128.637 93.4908 128.325C93.5192 128.013 93.3773 127.722 93.2142 127.53C92.8809 127.133 92.4909 127.148 92.498 127.091Z" fill="#455A64"/>
  <path d="M91.8241 132.85C91.817 132.807 92.2637 132.864 92.512 133.438C92.6183 133.708 92.668 134.105 92.4694 134.481C92.2708 134.871 91.7886 135.098 91.3206 135.055C90.8525 135.027 90.4057 134.722 90.271 134.311C90.1292 133.906 90.2426 133.523 90.3916 133.275C90.7249 132.743 91.1787 132.758 91.1645 132.8C91.1858 132.857 90.8312 132.942 90.6256 133.396C90.5263 133.616 90.4766 133.921 90.5972 134.19C90.7036 134.46 91.0085 134.665 91.356 134.694C91.7106 134.722 92.0368 134.566 92.1857 134.318C92.3418 134.069 92.3418 133.757 92.2779 133.531C92.129 133.041 91.7886 132.899 91.8241 132.85Z" fill="#455A64"/>
  <path d="M76.797 127.232C76.8182 127.239 76.7615 127.502 76.6126 127.963C76.4636 128.424 76.1942 129.076 75.7829 129.842C74.9744 131.367 73.4639 133.338 71.23 134.806C68.9961 136.281 66.5921 136.884 64.8688 137.026C64.0036 137.104 63.3016 137.09 62.8193 137.047C62.3371 137.005 62.0747 136.955 62.0747 136.934C62.0747 136.863 63.1455 136.983 64.8404 136.771C66.5283 136.565 68.8543 135.934 71.0244 134.501C73.1944 133.069 74.6978 131.182 75.5488 129.714C76.4211 128.239 76.7331 127.211 76.797 127.232Z" fill="#455A64"/>
  <path d="M107.305 137.579C107.291 137.6 107.12 137.501 106.837 137.295C106.546 137.097 106.149 136.77 105.702 136.324C104.801 135.437 103.731 133.998 103.029 132.182C102.334 130.367 102.156 128.58 102.234 127.317C102.27 126.686 102.341 126.176 102.426 125.835C102.504 125.488 102.561 125.303 102.582 125.31C102.646 125.325 102.497 126.083 102.497 127.324C102.49 128.558 102.702 130.282 103.376 132.047C104.057 133.806 105.057 135.224 105.894 136.139C106.716 137.054 107.34 137.522 107.305 137.579Z" fill="#455A64"/>
  <path d="M62.2732 98.2112L69.2372 98.5942C69.6769 100.849 71.2087 104.303 71.2087 104.303C76.8182 94.5732 81.1654 81.5317 82.2433 76.2909C82.0873 75.7662 81.9029 75.1917 81.6689 74.5393C81.3994 73.7947 81.6334 72.3764 81.754 71.5892C81.9455 70.4191 82.2717 68.8518 82.3639 68.1285C82.6617 65.9159 83.0163 65.5684 83.7893 65.8166C84.8389 66.157 83.3567 72.036 84.2219 72.1636C84.6828 72.2345 85.2502 70.2205 85.4133 68.5681C85.5764 66.9158 86.3281 61.8311 86.8742 61.4978C87.6755 61.0014 88.3705 61.7885 88.1719 63.4338C87.9663 65.1003 87.711 70.0645 88.5832 70.1354C89.4413 70.1992 90.1647 61.7744 90.1647 61.7744C90.1647 61.7744 90.0299 59.9376 91.037 59.9873C92.8595 60.0653 91.4341 68.9511 91.2781 69.795C91.1717 70.3836 92.1149 70.49 92.2 69.8517C92.2851 69.1993 92.7248 61.4269 94.5828 61.4907C96.0082 61.5403 93.4765 68.8093 94.2778 70.4971C95.0792 72.1849 95.6323 64.7741 96.9939 64.8734C97.4974 64.9089 97.8733 65.0081 96.9443 69.2064C96.4408 71.4615 94.9728 75.6031 93.6892 79.0354C91.5334 90.6657 82.0731 127.868 67.2303 121.06C58.926 117.252 55.054 98.3814 55.054 98.3814L62.2732 98.2112Z" fill="#FFBE9D"/>
  <path d="M93.6965 79.0283C93.6894 79.0283 93.7106 78.9362 93.7674 78.773C93.8312 78.5887 93.9163 78.3405 94.0156 78.0426C94.2496 77.3689 94.5758 76.4328 94.9871 75.2343C95.3985 74.0145 95.9091 72.5182 96.4126 70.7595C96.6679 69.8801 96.8806 68.9298 97.0792 67.9157C97.1714 67.4051 97.2706 66.8804 97.3274 66.3414C97.3557 66.0719 97.3841 65.7953 97.3628 65.5329C97.3416 65.2564 97.299 65.0294 97.0792 65.0294C96.8522 64.9656 96.7033 65.1571 96.5473 65.3911C96.4055 65.6251 96.292 65.9017 96.1927 66.1783C95.9941 66.7385 95.8381 67.3342 95.6821 67.937C95.5261 68.5469 95.3843 69.171 95.1999 69.8092C95.0864 70.1283 95.0368 70.4404 94.7744 70.7878C94.7247 70.8304 94.6822 70.8871 94.5829 70.9084C94.4765 70.9368 94.3914 70.8942 94.3134 70.8517C94.2142 70.7595 94.1645 70.6673 94.1149 70.5822C94.0369 70.4049 93.9872 70.2205 93.9659 70.0432C93.8383 68.6178 94.1645 67.242 94.3844 65.8166C94.5049 65.1074 94.6326 64.3841 94.7318 63.6537C94.7744 63.292 94.8169 62.9232 94.8169 62.5615C94.8311 62.2282 94.7744 61.7744 94.6255 61.7105C94.4411 61.6396 94.1149 61.8453 93.9447 62.1502C93.7461 62.4481 93.6043 62.7956 93.4837 63.1572C93.2355 63.8806 93.0795 64.6465 92.9377 65.4266C92.8029 66.2066 92.6965 67.0009 92.6114 67.8094C92.5689 68.2136 92.5334 68.6178 92.4909 69.0291L92.4342 69.6461C92.42 69.8163 92.42 70.1638 92.1505 70.3624C91.9023 70.5467 91.5761 70.568 91.3137 70.3978C91.1789 70.3127 91.0796 70.1567 91.0584 69.9936C91.0442 69.9156 91.0584 69.8376 91.0655 69.7666L91.0938 69.6177C91.1577 69.2064 91.2215 68.7951 91.2853 68.3767C91.3988 67.547 91.5051 66.7031 91.5831 65.8521C91.6612 65.0011 91.725 64.143 91.7321 63.2849C91.7321 62.4339 91.725 61.5403 91.4839 60.7603C91.4059 60.5262 91.2711 60.3064 91.1293 60.2497C90.9804 60.1929 90.7605 60.2497 90.6471 60.4057C90.3988 60.7532 90.3634 61.3205 90.3776 61.7815V61.8027V61.8169C90.2286 63.4835 90.0443 65.1216 89.8031 66.7314C89.6826 67.5328 89.5479 68.3341 89.3422 69.1213C89.2926 69.3199 89.2287 69.5185 89.1649 69.7099C89.0727 69.9085 89.0443 70.107 88.7607 70.3198C88.5196 70.4333 88.3352 70.3056 88.243 70.2063C88.1366 70.1 88.0941 69.9936 88.0515 69.8872C87.9664 69.6816 87.931 69.4759 87.8955 69.2773C87.6686 67.6817 87.7608 66.1428 87.8529 64.6323C87.8813 63.8735 88.0657 63.1218 87.9664 62.4552C87.9168 62.129 87.7891 61.7956 87.5693 61.6467C87.4629 61.5758 87.3353 61.5616 87.2076 61.59C87.1438 61.6113 87.0729 61.6325 87.009 61.6751C86.9452 61.7318 86.9594 61.7105 86.9098 61.7956C86.6332 62.3772 86.4984 63.1076 86.3495 63.7671C86.2077 64.4479 86.0942 65.1216 85.9808 65.7882C85.8744 66.4549 85.7751 67.1144 85.69 67.7597C85.6049 68.4051 85.5553 69.0575 85.4347 69.6886C85.3141 70.3198 85.1652 70.9368 84.9383 71.5254C84.8815 71.6743 84.8106 71.8161 84.7326 71.958C84.6333 72.0927 84.5766 72.2629 84.3071 72.348C84.1511 72.3906 84.0164 72.2842 83.9455 72.1991C83.8887 72.1069 83.8604 72.0218 83.832 71.9367C83.7965 71.7736 83.7823 71.6176 83.7753 71.4616C83.7611 70.256 83.9384 69.1426 84.0022 68.0717C84.0376 67.5399 84.0589 67.0151 83.9951 66.5329C83.9667 66.3059 83.8887 66.0365 83.7611 65.9868C83.5696 65.9088 83.3285 65.8733 83.1866 65.9726C82.8746 66.1996 82.7611 66.7172 82.6619 67.1357C82.5626 67.5753 82.5129 68.0079 82.4349 68.4263C82.1371 70.107 81.825 71.5467 81.6761 72.7239C81.6052 73.3125 81.5768 73.8444 81.6548 74.284C81.7541 74.7166 81.896 75.0925 81.9811 75.3903C82.0662 75.674 82.13 75.9009 82.1867 76.0782C82.2293 76.2342 82.2505 76.3122 82.2435 76.3122C82.2364 76.3122 82.2009 76.2413 82.1442 76.0853C82.0803 75.9151 82.0023 75.6882 81.9031 75.4116C81.8038 75.1067 81.6548 74.7663 81.5343 74.2982C81.4421 73.8373 81.4563 73.2912 81.513 72.6955C81.6407 71.497 81.9314 70.0645 82.2009 68.3838C82.2789 67.9654 82.3144 67.5186 82.4137 67.0718C82.4633 66.8449 82.5129 66.618 82.598 66.3839C82.6902 66.157 82.7824 65.9017 83.0448 65.7315C83.3214 65.5613 83.6263 65.6251 83.8816 65.7173C84.2149 65.9088 84.2291 66.2279 84.2859 66.4761C84.3568 67.008 84.3355 67.5399 84.3071 68.0788C84.2575 69.1568 84.0873 70.2843 84.1086 71.4332C84.1157 71.575 84.1298 71.7098 84.1582 71.8374C84.1866 71.9722 84.2575 72.0289 84.2433 72.0005C84.2717 72.0076 84.378 71.88 84.4348 71.7736C84.4986 71.653 84.5624 71.5183 84.6121 71.3835C84.8248 70.8304 84.9666 70.2276 85.0801 69.6106C85.2007 69.0007 85.2361 68.3554 85.3212 67.703C85.3992 67.0506 85.4985 66.391 85.5978 65.7173C85.7042 65.0436 85.8176 64.3699 85.9595 63.682C86.1155 62.9941 86.2148 62.3062 86.5552 61.59C86.5764 61.5191 86.7254 61.356 86.8034 61.3134C86.8956 61.2567 86.9949 61.2212 87.1012 61.1858C87.3211 61.129 87.5835 61.1574 87.782 61.2921C88.1721 61.5687 88.2926 61.9942 88.3635 62.3772C88.4203 62.7672 88.4061 63.1572 88.3565 63.5331C88.3139 63.8948 88.2855 64.2706 88.2572 64.6394C88.1721 66.1215 88.087 67.6746 88.3068 69.1851C88.3423 69.3695 88.3777 69.5539 88.4416 69.7099C88.477 69.7808 88.5125 69.8588 88.5479 69.8943C88.5692 69.9227 88.5763 69.9156 88.5834 69.9227C88.5692 70.0858 88.5834 69.9581 88.5763 69.9936C88.5763 69.9652 88.5692 69.9652 88.5479 69.9298C88.5834 69.9014 88.6969 69.7028 88.7536 69.5397C88.8174 69.3624 88.8741 69.178 88.9167 68.9866C89.1082 68.2278 89.2429 67.4406 89.3635 66.6392C89.5975 65.0436 89.7819 63.4055 89.9308 61.7531V61.7885C89.9237 61.2425 89.9166 60.6752 90.2925 60.1078C90.5123 59.8313 90.9094 59.6752 91.2853 59.8171C91.6541 59.9873 91.7888 60.3206 91.8952 60.5901C92.1788 61.4978 92.1647 62.3842 92.1718 63.2636C92.1576 64.143 92.1008 65.0082 92.0157 65.8662C91.9306 66.7243 91.8314 67.5682 91.7108 68.4122C91.647 68.8306 91.5831 69.249 91.5193 69.6674C91.4697 69.9298 91.4768 69.9369 91.5548 70.0149C91.6399 70.0787 91.803 70.0716 91.8881 70.0007C91.9803 69.9368 91.9874 69.8163 92.0086 69.5894L92.0654 68.9724C92.1079 68.5611 92.1505 68.1498 92.1859 67.7455C92.2781 66.93 92.3845 66.1286 92.5263 65.3344C92.6682 64.5401 92.8313 63.76 93.0937 63.0012C93.2284 62.6254 93.3773 62.2495 93.6114 61.902C93.7319 61.7318 93.8667 61.5616 94.0652 61.434C94.2709 61.3134 94.4978 61.207 94.8028 61.3276C95.0935 61.4836 95.1432 61.7531 95.1928 61.9517C95.2212 62.1573 95.2353 62.363 95.2283 62.5544C95.2212 62.9445 95.1786 63.3203 95.129 63.6962C95.0297 64.4408 94.8949 65.1642 94.7744 65.8733C94.5404 67.2846 94.2212 68.6887 94.3347 69.9865C94.3489 70.1425 94.3914 70.2914 94.4482 70.4191C94.4836 70.4829 94.5191 70.5396 94.5404 70.5609C94.5404 70.5538 94.5333 70.5467 94.5262 70.5893C94.5191 70.646 94.5262 70.5751 94.5191 70.5893C94.4907 70.5467 94.512 70.5609 94.5262 70.5396C94.6751 70.3553 94.7815 70.0007 94.8737 69.7099C95.0581 69.093 95.207 68.4618 95.363 67.8519C95.519 67.242 95.6821 66.6392 95.8949 66.0648C96.0012 65.7741 96.1147 65.4904 96.2849 65.2209C96.3771 65.0862 96.4622 64.9514 96.6111 64.8451C96.675 64.7883 96.7742 64.7458 96.8664 64.7174C96.9799 64.7032 97.065 64.7032 97.1359 64.7174C97.3061 64.7245 97.5259 64.8734 97.5827 65.0436C97.6536 65.2067 97.6678 65.3627 97.6749 65.5117C97.6891 65.8095 97.6536 66.0932 97.6252 66.3698C97.5614 66.9229 97.455 67.4477 97.3557 67.9583C97.1501 68.9795 96.9232 69.9439 96.6537 70.8162C96.1218 72.5749 95.5899 74.0642 95.1502 75.2769C94.7106 76.4895 94.3489 77.4256 94.1007 78.0568C93.9801 78.3546 93.8879 78.5887 93.8099 78.773C93.739 78.9503 93.7036 79.0283 93.6965 79.0283Z" fill="#EB996E"/>
  <path d="M54.9832 99.0128C56.3306 103.764 58.9616 111.111 61.7911 118.855C62.2024 119.976 63.7555 120.047 64.2661 118.969L71.2017 104.303C71.2017 104.303 69.5281 92.2545 69.6699 92.68C69.8118 93.1055 55.3519 94.2401 55.3519 94.2401L54.9832 99.0128Z" fill="#15C000" fill-opacity="0.84"/>
  <path d="M70.6132 96.6531C70.6273 96.7098 69.748 96.9651 68.3793 97.4899C67.0035 98.0147 65.1455 98.8444 63.2308 100C61.316 101.163 59.7204 102.426 58.6212 103.404C57.522 104.383 56.8908 105.043 56.8483 105C56.827 104.986 56.9688 104.801 57.2383 104.482C57.5007 104.163 57.9191 103.731 58.451 103.213C59.5147 102.177 61.1033 100.866 63.0464 99.6812C64.9895 98.504 66.8901 97.7027 68.2942 97.2417C68.9963 97.0077 69.5778 96.8446 69.982 96.7595C70.3791 96.6673 70.6061 96.6247 70.6132 96.6531Z" fill="#FAFAFA"/>
  <path d="M73.3647 100.311C73.3293 100.339 72.8541 99.7792 72.2088 98.7934C71.5634 97.8077 70.755 96.3823 70.0671 94.7228C69.3792 93.0563 68.9395 91.4819 68.6984 90.326C68.4573 89.1701 68.4006 88.4467 68.4431 88.4396C68.4998 88.4325 68.6488 89.1417 68.9537 90.2693C69.2516 91.3968 69.7267 92.9428 70.4075 94.581C71.0883 96.2263 71.8471 97.6517 72.4357 98.6587C73.0101 99.6657 73.4073 100.276 73.3647 100.311Z" fill="#263238"/>
  <path d="M77.9886 35.3371C75.5632 39.2588 75.0455 44.3364 76.634 48.6765C77.3432 50.6267 78.4779 52.5485 78.2722 54.6193C78.0595 56.7397 76.4568 58.7395 77.0241 60.789C77.3574 62.0017 78.3999 62.9023 78.797 64.0937C79.265 65.4908 78.7757 67.0084 78.5559 68.4622C77.9886 72.1782 79.1729 75.9084 79.4707 79.6599C79.7615 83.4043 78.7545 87.794 75.4143 89.4251C74.4002 89.9215 73.074 90.0633 72.2301 89.3045C71.1593 88.34 71.4571 86.6168 71.7479 85.1984C74.6838 71.001 65.6136 57.1723 67.6844 42.8188C68.0177 40.5211 69.3013 36.6136 70.9607 35.0038C72.6202 33.394 77.1943 33.5926 78.7615 35.2875" fill="#263238"/>
  <path d="M64.0179 76.483C63.9895 76.4617 64.4434 75.9724 65.0816 74.9653C65.7199 73.9654 66.5141 72.4053 66.9325 70.3203C67.1382 69.2778 67.2233 68.1219 67.1524 66.8738C67.0956 65.6257 66.9254 64.2782 67.0034 62.8457C67.0318 62.1295 67.1878 61.3919 67.4077 60.6757C67.6559 59.9594 67.9892 59.2645 68.3792 58.5907C69.1735 57.2504 70.1805 56.0023 71.0953 54.662C72.0172 53.3287 72.776 51.9246 73.0242 50.4354C73.2725 48.9461 73.003 47.471 72.776 46.0811C72.5278 44.6911 72.3576 43.3224 72.464 42.053C72.542 40.7836 72.7973 39.6135 73.1448 38.5923C73.8398 36.5428 74.8681 35.0819 75.6482 34.1813C76.0382 33.7274 76.3715 33.3941 76.6126 33.1885C76.8466 32.9757 76.9743 32.8764 76.9885 32.8835C77.0168 32.9119 76.5133 33.3445 75.7616 34.2735C75.0241 35.1954 74.0454 36.6492 73.393 38.6774C73.0739 39.6844 72.8399 40.8333 72.769 42.0743C72.6839 43.3224 72.854 44.6415 73.1093 46.0314C73.3434 47.4143 73.6341 48.9248 73.3788 50.4992C73.1235 52.0664 72.3293 53.5344 71.4003 54.8747C70.4713 56.2292 69.4642 57.4703 68.6913 58.7751C68.3012 59.4276 67.9821 60.1013 67.741 60.7892C67.5282 61.477 67.3722 62.172 67.3368 62.8741C67.2446 64.2641 67.4077 65.6044 67.4502 66.8667C67.514 68.129 67.4077 69.3275 67.1807 70.3842C66.7198 72.5046 65.8688 74.0718 65.1951 75.0575C64.8547 75.554 64.5568 75.9156 64.3512 76.1497C64.1455 76.3695 64.032 76.4901 64.0179 76.483Z" fill="#455A64"/>
  <path d="M57.2949 77.5403C57.2807 77.5332 57.3587 77.3701 57.5147 77.0651C57.692 76.7318 57.9189 76.285 58.2026 75.7319C58.7983 74.576 59.6847 72.9094 60.557 70.7607C61.4151 68.619 62.2661 65.9383 62.2874 62.8818C62.2945 62.123 62.2377 61.3429 62.1172 60.5558C61.9966 59.7686 61.8122 58.9672 61.6917 58.1233C61.5782 57.2865 61.5215 56.393 61.7484 55.5136C61.9682 54.6272 62.5214 53.8471 63.1951 53.2372C64.5354 52.0245 66.1452 51.2303 66.9749 49.8048C67.8259 48.4078 68.0174 46.7625 68.2302 45.2591C68.4146 43.7344 68.7053 42.2664 69.2088 40.9757C69.691 39.678 70.3364 38.5504 71.0101 37.593C72.3646 35.6641 73.868 34.4514 74.953 33.7281C75.4991 33.3664 75.9388 33.1182 76.2508 32.9693C76.5558 32.8204 76.726 32.7423 76.726 32.7565C76.7472 32.792 76.0877 33.104 75.0311 33.8486C73.9815 34.6004 72.5277 35.8272 71.2228 37.742C70.5775 38.6922 69.9534 39.8056 69.4996 41.0821C69.0244 42.3515 68.7479 43.7769 68.5706 45.3016C68.3649 46.8122 68.1876 48.4929 67.287 49.9963C66.3863 51.5281 64.7127 52.3437 63.4504 53.5067C62.8121 54.0882 62.3157 54.7974 62.1101 55.6058C61.9044 56.4143 61.947 57.2582 62.0604 58.0737C62.1739 58.8963 62.3512 59.6977 62.4718 60.499C62.5923 61.3075 62.649 62.1018 62.6349 62.8818C62.5852 66.0093 61.6988 68.7112 60.8052 70.8599C59.8904 73.0158 58.9685 74.661 58.3373 75.7957C58.0253 76.3347 57.7771 76.7673 57.5856 77.0935C57.4012 77.3984 57.309 77.5474 57.2949 77.5403Z" fill="#455A64"/>
  <path d="M291.929 277.93C291.922 277.923 291.964 277.824 292.056 277.632C292.156 277.42 292.29 277.136 292.461 276.774C292.801 276.015 293.248 274.874 293.638 273.342C294.418 270.292 294.694 265.633 293.538 260.095C293 257.322 292.134 254.35 291.085 251.202C290.042 248.046 288.837 244.692 287.851 241.075C286.872 237.465 286.106 233.544 286.255 229.43C286.404 225.31 287.624 221.197 288.964 217.105C290.305 213.006 291.688 208.999 292.099 204.971C292.567 200.95 291.709 197 289.872 193.767C288.099 190.497 285.865 187.696 284.192 184.803C282.497 181.916 281.433 178.945 280.781 176.186C279.511 170.619 279.958 165.925 280.568 162.833C281.227 159.727 281.958 158.117 281.958 158.117C281.965 158.117 281.937 158.223 281.873 158.429C281.802 158.649 281.71 158.954 281.589 159.329C281.341 160.124 281.022 161.308 280.724 162.861C280.171 165.946 279.774 170.605 281.071 176.115C281.738 178.846 282.802 181.775 284.497 184.625C286.163 187.49 288.404 190.27 290.22 193.582C292.092 196.851 292.992 200.929 292.517 205.021C292.099 209.12 290.709 213.155 289.369 217.247C288.028 221.339 286.823 225.402 286.674 229.452C286.525 233.501 287.269 237.38 288.234 240.976C289.205 244.578 290.397 247.932 291.425 251.095C292.468 254.258 293.319 257.251 293.843 260.045C294.971 265.619 294.645 270.328 293.808 273.384C293.382 274.916 292.914 276.058 292.546 276.81C292.361 277.164 292.212 277.441 292.106 277.654C291.992 277.838 291.936 277.937 291.929 277.93Z" fill="#263238"/>
  <path d="M286.461 187.66C286.461 187.66 283.064 176.81 289.156 170.456C289.369 170.236 289.745 170.335 289.802 170.64C290.128 172.427 290.532 177.888 286.461 187.66Z" fill="#15C000" fill-opacity="0.84"/>
  <path d="M288.496 174.064C288.553 174.079 288.454 174.837 288.269 176.064C288.05 177.44 287.787 179.064 287.497 180.851C287.213 182.638 286.958 184.262 286.738 185.638C286.553 186.865 286.44 187.624 286.376 187.617C286.319 187.609 286.326 186.844 286.44 185.603C286.553 184.362 286.773 182.66 287.078 180.787C287.383 178.915 287.709 177.227 287.979 176.015C288.234 174.795 288.44 174.05 288.496 174.064Z" fill="#263238"/>
  <path d="M290.447 213.255C290.447 213.255 292.525 202.071 300.879 199.305C301.169 199.206 301.453 199.476 301.361 199.774C300.808 201.511 298.616 206.525 290.447 213.255Z" fill="#15C000" fill-opacity="0.84"/>
  <path d="M298.602 202.192C298.644 202.228 298.205 202.859 297.46 203.859C296.616 204.972 295.63 206.284 294.538 207.731C293.453 209.177 292.468 210.489 291.631 211.61C290.893 212.61 290.439 213.227 290.39 213.191C290.34 213.163 290.709 212.482 291.39 211.44C292.07 210.397 293.063 208.993 294.205 207.482C295.354 205.972 296.432 204.632 297.233 203.681C298.027 202.717 298.559 202.157 298.602 202.192Z" fill="#263238"/>
  <path d="M288.192 241.302C288.192 241.302 286.929 229.998 294.12 224.927C294.376 224.75 294.723 224.927 294.716 225.232C294.695 227.055 294.049 232.487 288.192 241.302Z" fill="#15C000" fill-opacity="0.84"/>
  <path d="M292.78 228.345C292.836 228.367 292.595 229.097 292.177 230.267C291.695 231.579 291.127 233.118 290.503 234.82C289.886 236.522 289.319 238.061 288.844 239.373C288.425 240.543 288.17 241.266 288.113 241.252C288.064 241.238 288.213 240.479 288.56 239.281C288.908 238.082 289.447 236.451 290.106 234.671C290.766 232.891 291.404 231.296 291.9 230.154C292.39 229.019 292.73 228.324 292.78 228.345Z" fill="#263238"/>
  <path d="M294.482 269.512C294.482 269.512 293.624 258.173 300.992 253.357C301.248 253.187 301.595 253.379 301.581 253.684C301.496 255.506 300.659 260.917 294.482 269.512Z" fill="#15C000" fill-opacity="0.84"/>
  <path d="M299.531 256.733C299.588 256.754 299.318 257.478 298.857 258.634C298.325 259.924 297.708 261.442 297.02 263.123C296.34 264.803 295.723 266.321 295.198 267.612C294.737 268.76 294.46 269.477 294.404 269.462C294.354 269.448 294.531 268.697 294.921 267.512C295.311 266.328 295.907 264.718 296.63 262.959C297.354 261.208 298.049 259.633 298.581 258.513C299.12 257.385 299.481 256.705 299.531 256.733Z" fill="#263238"/>
  <path d="M281.582 178.122C281.582 178.122 271.505 172.86 271.306 164.059C271.299 163.747 271.64 163.556 271.895 163.733C273.391 164.768 277.547 168.343 281.582 178.122Z" fill="#15C000" fill-opacity="0.84"/>
  <path d="M273.399 167.079C273.448 167.044 273.916 167.654 274.654 168.654C275.469 169.788 276.434 171.115 277.498 172.583C278.561 174.051 279.526 175.37 280.349 176.504C281.086 177.504 281.547 178.114 281.497 178.157C281.455 178.192 280.916 177.646 280.114 176.689C279.313 175.731 278.264 174.377 277.157 172.831C276.051 171.292 275.087 169.866 274.413 168.824C273.739 167.782 273.356 167.115 273.399 167.079Z" fill="#263238"/>
  <path d="M292.411 201.432C292.411 201.432 282.029 196.787 281.299 188.022C281.27 187.717 281.604 187.504 281.866 187.66C283.419 188.604 287.78 191.908 292.411 201.432Z" fill="#15C000" fill-opacity="0.84"/>
  <path d="M283.568 190.907C283.618 190.871 284.121 191.453 284.915 192.403C285.802 193.481 286.844 194.75 287.993 196.155C289.149 197.552 290.191 198.814 291.078 199.892C291.872 200.842 292.369 201.431 292.326 201.473C292.284 201.509 291.709 200.998 290.858 200.09C290 199.183 288.872 197.892 287.667 196.424C286.468 194.956 285.419 193.595 284.681 192.588C283.944 191.588 283.525 190.942 283.568 190.907Z" fill="#263238"/>
  <path d="M286.433 227.431C286.433 227.431 279.306 218.573 282.646 210.432C282.766 210.149 283.149 210.106 283.312 210.368C284.277 211.914 286.653 216.85 286.433 227.431Z" fill="#15C000" fill-opacity="0.84"/>
  <path d="M283.356 214.033C283.412 214.026 283.604 214.771 283.873 215.984C284.171 217.352 284.519 218.948 284.902 220.721C285.292 222.487 285.646 224.089 285.944 225.451C286.221 226.657 286.391 227.408 286.334 227.43C286.285 227.444 286.008 226.727 285.653 225.529C285.306 224.331 284.887 222.664 284.483 220.813C284.086 218.955 283.774 217.267 283.576 216.04C283.384 214.814 283.299 214.048 283.356 214.033Z" fill="#263238"/>
  <path d="M293.496 258.024C293.496 258.024 283.192 253.208 282.61 244.429C282.589 244.124 282.922 243.911 283.185 244.081C284.724 245.046 289.028 248.429 293.496 258.024Z" fill="#15C000" fill-opacity="0.84"/>
  <path d="M284.837 247.351C284.886 247.315 285.383 247.904 286.163 248.868C287.028 249.96 288.049 251.251 289.177 252.669C290.304 254.088 291.325 255.364 292.198 256.456C292.978 257.421 293.46 258.016 293.417 258.059C293.375 258.094 292.808 257.57 291.971 256.655C291.134 255.733 290.021 254.421 288.843 252.932C287.666 251.442 286.645 250.067 285.929 249.045C285.198 248.038 284.787 247.386 284.837 247.351Z" fill="#263238"/>
  <path d="M314.012 213.319C314.019 213.319 314.026 213.404 314.026 213.567C314.019 213.766 314.012 214.007 314.005 214.298C313.976 214.978 313.934 215.9 313.884 217.056C313.75 219.482 313.565 222.857 313.345 226.899V226.906V226.921C312.608 231.034 310.516 235.594 307.7 240.026C305.637 243.288 303.474 246.252 301.602 249.011C299.722 251.763 298.134 254.309 297.035 256.564C295.921 258.819 295.276 260.755 294.9 262.109C294.716 262.79 294.581 263.315 294.503 263.684C294.418 264.045 294.368 264.237 294.354 264.23C294.34 264.23 294.361 264.031 294.418 263.662C294.467 263.294 294.581 262.755 294.737 262.067C295.07 260.691 295.68 258.727 296.765 256.436C297.843 254.145 299.417 251.564 301.282 248.791C303.133 246.011 305.289 243.047 307.346 239.799C310.147 235.395 312.232 230.899 312.991 226.85V226.871C313.274 222.829 313.508 219.453 313.679 217.035C313.771 215.886 313.849 214.964 313.898 214.283C313.927 213.993 313.948 213.759 313.969 213.56C313.991 213.397 314.005 213.312 314.012 213.319Z" fill="#263238"/>
  <path d="M307.878 239.173C307.878 239.173 312.239 228.671 306.75 221.792C306.559 221.551 306.176 221.621 306.091 221.919C305.608 223.678 304.708 229.075 307.878 239.173Z" fill="#15C000" fill-opacity="0.84"/>
  <path d="M307.083 225.457C307.14 225.45 307.275 226.209 307.431 227.443C307.587 228.677 307.757 230.386 307.892 232.279C308.027 234.173 308.09 235.889 308.09 237.137C308.09 238.385 308.027 239.151 307.97 239.151C307.906 239.151 307.863 238.385 307.793 237.144C307.7 235.754 307.587 234.116 307.466 232.308C307.339 230.499 307.225 228.861 307.126 227.471C307.055 226.23 307.027 225.464 307.083 225.457Z" fill="#263238"/>
  <g opacity="0.3">
    <g opacity="0.3">
      <path opacity="0.3" d="M307.878 239.173C307.878 239.173 312.239 228.671 306.75 221.792C306.559 221.551 306.176 221.621 306.091 221.919C305.608 223.678 304.708 229.075 307.878 239.173Z" fill="black"/>
    </g>
  </g>
  <path d="M294.368 264.485C294.368 264.485 297.864 253.663 291.836 247.252C291.623 247.025 291.248 247.131 291.191 247.429C290.85 249.216 290.39 254.677 294.368 264.485Z" fill="#15C000" fill-opacity="0.84"/>
  <path d="M292.46 250.869C292.517 250.855 292.715 251.607 292.964 252.819C293.219 254.039 293.531 255.727 293.815 257.599C294.105 259.471 294.304 261.18 294.41 262.421C294.51 263.662 294.51 264.435 294.453 264.442C294.389 264.45 294.29 263.684 294.112 262.457C293.907 261.074 293.666 259.457 293.396 257.663C293.127 255.869 292.879 254.252 292.666 252.869C292.496 251.649 292.403 250.883 292.46 250.869Z" fill="#263238"/>
  <g opacity="0.3">
    <g opacity="0.3">
      <path opacity="0.3" d="M294.368 264.485C294.368 264.485 297.864 253.663 291.836 247.252C291.623 247.025 291.248 247.131 291.191 247.429C290.85 249.216 290.39 254.677 294.368 264.485Z" fill="black"/>
    </g>
  </g>
  <path d="M313.437 226.346C313.437 226.346 322.755 219.822 321.812 211.078C321.777 210.773 321.415 210.624 321.188 210.829C319.834 212.049 316.181 216.12 313.437 226.346Z" fill="#15C000" fill-opacity="0.84"/>
  <g opacity="0.3">
    <g opacity="0.3">
      <path opacity="0.3" d="M313.437 226.346C313.437 226.346 322.755 219.822 321.812 211.078C321.777 210.773 321.415 210.624 321.188 210.829C319.834 212.049 316.181 216.12 313.437 226.346Z" fill="black"/>
    </g>
  </g>
  <path d="M320.125 214.339C320.175 214.367 319.884 215.076 319.352 216.204C318.82 217.324 318.047 218.863 317.147 220.53C316.246 222.203 315.381 223.685 314.707 224.735C314.034 225.785 313.573 226.402 313.523 226.366C313.473 226.331 313.849 225.664 314.445 224.579C315.111 223.352 315.899 221.913 316.764 220.324C317.629 218.728 318.409 217.289 319.076 216.062C319.686 214.977 320.076 214.31 320.125 214.339Z" fill="#263238"/>
  <path d="M298.127 253.754C298.127 253.754 309.361 252.003 312.375 243.734C312.481 243.443 312.219 243.152 311.921 243.237C310.169 243.734 305.091 245.783 298.127 253.754Z" fill="#15C000" fill-opacity="0.84"/>
  <g opacity="0.3">
    <g opacity="0.3">
      <path opacity="0.3" d="M298.127 253.754C298.127 253.754 309.361 252.003 312.375 243.734C312.481 243.443 312.219 243.152 311.921 243.237C310.169 243.734 305.091 245.783 298.127 253.754Z" fill="black"/>
    </g>
  </g>
  <path d="M309.417 245.926C309.452 245.975 308.871 246.479 307.899 247.259C306.928 248.032 305.559 249.075 304.013 250.174C302.467 251.28 301.035 252.23 299.971 252.876C298.907 253.521 298.219 253.868 298.191 253.819C298.162 253.762 298.794 253.33 299.808 252.62C300.95 251.812 302.29 250.869 303.765 249.826C305.24 248.777 306.58 247.826 307.715 247.018C308.736 246.302 309.381 245.876 309.417 245.926Z" fill="#263238"/>
  <path d="M287.404 274.434L284.127 296.489H304.551L301.906 274.434H287.404Z" fill="#455A64"/>
  <path d="M302.722 281.263C302.722 281.384 299.035 281.476 294.489 281.476C289.936 281.476 286.255 281.384 286.255 281.263C286.255 281.143 289.943 281.05 294.489 281.05C299.035 281.05 302.722 281.15 302.722 281.263Z" fill="#263238"/>
  <path d="M303.126 283.022C303.126 283.143 299.318 283.235 294.624 283.235C289.922 283.235 286.121 283.143 286.121 283.022C286.121 282.901 289.929 282.809 294.624 282.809C299.318 282.809 303.126 282.901 303.126 283.022Z" fill="#263238"/>
  <path d="M223.708 60.4709C223.708 60.4709 223.516 60.478 223.154 60.4638C222.786 60.4496 222.247 60.4213 221.53 60.4709C220.112 60.5489 217.992 60.8184 215.488 61.8609C213.013 62.9033 210.12 64.7542 207.815 67.8391C206.674 69.378 205.716 71.2218 205.135 73.321C204.574 75.4201 204.383 77.7461 204.652 80.1431C204.957 82.533 205.688 85.0009 207.028 87.2702C207.695 88.4049 208.482 89.5041 209.439 90.4685C210.368 91.4685 211.467 92.3478 212.701 93.0215C213.935 93.6882 215.347 94.1137 216.793 94.0498C218.226 94.0002 219.708 93.4967 220.758 92.4542C221.814 91.4117 222.339 89.887 222.339 88.3694C222.346 86.8376 221.814 85.3129 220.899 84.0222C219.056 81.4338 216.084 79.6963 212.914 78.7532C209.716 77.8241 206.205 77.7958 202.844 78.6113C201.17 79.0439 199.532 79.6892 197.993 80.5402C196.454 81.3983 195.057 82.5188 193.831 83.8095C193.54 84.1499 193.206 84.4548 192.951 84.8165L192.15 85.8944C191.682 86.6603 191.207 87.4262 190.845 88.263C190.093 89.9083 189.568 91.6741 189.306 93.4896C188.831 97.1205 189.271 100.865 190.739 104.127C192.157 107.396 194.575 110.205 197.589 111.892C199.093 112.729 200.752 113.275 202.44 113.367C204.121 113.474 205.801 113.041 207.227 112.219C208.652 111.403 209.843 110.169 210.468 108.694C211.085 107.212 211.077 105.524 210.538 104.056C210.014 102.574 209.021 101.305 207.872 100.283C206.716 99.2693 205.362 98.5034 203.95 98.007C201.092 97.0709 198.043 97.1205 195.32 97.858C192.59 98.6027 190.15 100.007 188.235 101.808C186.328 103.616 184.987 105.836 184.179 108.098C182.541 112.665 182.959 117.296 184.363 120.842C185.81 124.416 188.108 126.955 190.207 128.636C192.327 130.331 194.249 131.246 195.575 131.763C196.242 132.018 196.752 132.196 197.107 132.295C197.454 132.401 197.632 132.472 197.632 132.472C197.632 132.472 197.447 132.43 197.093 132.331C196.738 132.245 196.22 132.075 195.54 131.834C194.206 131.338 192.256 130.437 190.107 128.749C187.98 127.076 185.647 124.523 184.165 120.92C182.725 117.339 182.278 112.651 183.924 108.013C184.739 105.708 186.094 103.453 188.037 101.602C189.98 99.7657 192.455 98.3261 195.235 97.5673C198.008 96.8156 201.114 96.7517 204.057 97.702C205.51 98.2126 206.9 98.9927 208.092 100.035C209.276 101.078 210.304 102.39 210.858 103.943C211.418 105.482 211.439 107.262 210.787 108.829C210.127 110.396 208.886 111.673 207.404 112.531C205.922 113.382 204.17 113.836 202.426 113.729C200.681 113.637 198.965 113.077 197.419 112.212C194.327 110.481 191.859 107.609 190.412 104.276C188.916 100.943 188.469 97.1347 188.951 93.4399C189.221 91.589 189.753 89.7878 190.526 88.1141C190.895 87.2631 191.384 86.483 191.859 85.6959L192.675 84.5896C192.937 84.2137 193.277 83.9017 193.575 83.5613C194.83 82.2422 196.263 81.1005 197.83 80.2282C199.397 79.3559 201.064 78.7106 202.773 78.2638C206.198 77.4341 209.773 77.4625 213.035 78.4127C216.268 79.3772 219.297 81.143 221.204 83.8237C222.147 85.1569 222.708 86.7596 222.694 88.3623C222.694 89.9579 222.14 91.5678 221.006 92.6811C219.878 93.7945 218.318 94.3193 216.822 94.3619C215.311 94.4186 213.836 93.9718 212.574 93.2839C211.304 92.5889 210.184 91.6812 209.241 90.6671C208.262 89.6743 207.468 88.5538 206.794 87.405C205.44 85.0931 204.709 82.5826 204.411 80.1644C204.149 77.732 204.347 75.3775 204.929 73.25C205.525 71.1296 206.503 69.2574 207.666 67.7044C210.014 64.5911 212.95 62.7473 215.453 61.7119C217.985 60.6765 220.126 60.4354 221.545 60.3787C222.261 60.3432 222.807 60.3787 223.176 60.4071C223.516 60.4496 223.708 60.4709 223.708 60.4709Z" fill="#263238"/>
  <path d="M247.387 131.43H147.955V208.119H247.387V131.43Z" fill="#15C000" fill-opacity="0.84"/>
  <path d="M147.955 131.43L166.322 148.564H264.066L247.387 131.43H147.955Z" fill="#15C000" fill-opacity="0.84"/>
  <path d="M147.955 131.43C149.749 131.43 190.817 131.352 247.387 131.245H247.465L247.522 131.302C252.848 136.77 258.379 142.45 264.031 148.251C264.088 148.308 264.145 148.372 264.201 148.428L264.506 148.741H264.067C223.985 148.712 188.413 148.684 166.322 148.67H166.28L166.252 148.641C154.756 137.826 148.558 131.997 147.955 131.43C148.565 131.99 154.806 137.77 166.393 148.478L166.315 148.45C188.406 148.436 223.978 148.407 264.059 148.379L263.925 148.691C263.868 148.634 263.811 148.577 263.755 148.514C258.102 142.706 252.578 137.025 247.252 131.557L247.38 131.614C190.817 131.508 149.749 131.437 147.955 131.43Z" fill="#263238"/>
  <path d="M177.824 166.796C176.775 166.796 175.81 167.746 175.796 168.796C175.775 169.846 176.704 170.824 177.754 170.867C178.803 170.902 179.803 169.995 179.86 168.945C179.916 167.895 179.03 166.881 177.98 166.803" fill="#263238"/>
  <path d="M201.298 166.796C200.248 166.796 199.284 167.746 199.269 168.796C199.248 169.845 200.177 170.824 201.227 170.866C202.276 170.902 203.276 169.994 203.333 168.945C203.39 167.895 202.503 166.881 201.454 166.803" fill="#263238"/>
  <path d="M201.447 185.149C201.34 185.192 201.184 183.227 199.475 180.738C198.638 179.504 197.383 178.192 195.717 177.136C194.064 176.072 191.958 175.313 189.689 175.228C187.419 175.185 185.278 175.831 183.569 176.802C181.845 177.767 180.526 179.008 179.618 180.192C177.782 182.582 177.512 184.532 177.413 184.483C177.399 184.483 177.42 184.362 177.47 184.149C177.534 183.937 177.576 183.603 177.732 183.206C177.987 182.398 178.512 181.263 179.413 180.029C180.306 178.795 181.647 177.504 183.398 176.497C185.143 175.483 187.348 174.802 189.696 174.852C192.043 174.937 194.206 175.739 195.894 176.845C197.589 177.951 198.858 179.313 199.681 180.589C200.518 181.866 200.971 183.029 201.184 183.851C201.319 184.256 201.347 184.589 201.39 184.809C201.447 185.036 201.461 185.149 201.447 185.149Z" fill="#263238"/>
  <path opacity="0.5" d="M148.182 132.274L165.769 154.57H247.387V148.563H166.322L148.182 132.274Z" fill="black"/>
  <path d="M227.779 207.949C227.679 207.949 227.594 194.61 227.594 178.157C227.594 161.697 227.679 148.365 227.779 148.365C227.878 148.365 227.963 161.704 227.963 178.157C227.97 194.61 227.885 207.949 227.779 207.949Z" fill="#263238"/>
  <path d="M243.394 190.56H234.629V200.467H243.394V190.56Z" fill="#F5F5F5"/>
  <path d="M147.955 131.43L127.545 148.564H147.955V131.43Z" fill="#15C000" fill-opacity="0.84"/>
  <g opacity="0.4">
    <path opacity="0.4" d="M147.955 131.43L127.545 148.564H147.955V131.43Z" fill="black"/>
  </g>
  <path d="M250.322 208.119H135.998V296.297H250.322V208.119Z" fill="#15C000" fill-opacity="0.84"/>
  <path opacity="0.3" d="M250.322 208.119H135.998V296.297H250.322V208.119Z" fill="black"/>
  <path d="M221.679 295.673C221.58 295.673 221.495 276.022 221.495 251.776C221.495 227.529 221.58 207.878 221.679 207.878C221.779 207.878 221.864 227.529 221.864 251.776C221.864 276.022 221.779 295.673 221.679 295.673Z" fill="#263238"/>
  <path d="M240.629 276.228H231.863V286.135H240.629V276.228Z" fill="#F5F5F5"/>
  <path d="M183.86 208.354H170.875V227.168H183.86V208.354Z" fill="#263238"/>
  <path d="M183.86 277.22H170.875V296.035H183.86V277.22Z" fill="#263238"/>
  <path d="M249.33 208.119C249.33 208.126 249.23 208.133 249.039 208.14C248.826 208.147 248.542 208.147 248.181 208.161C247.408 208.169 246.294 208.183 244.876 208.197C241.99 208.211 237.848 208.232 232.735 208.254C222.466 208.268 208.304 208.289 192.674 208.303C177.03 208.282 162.875 208.261 152.607 208.247C147.494 208.225 143.352 208.204 140.466 208.19C139.047 208.176 137.941 208.161 137.161 208.154C136.799 208.147 136.516 208.14 136.303 208.133C136.111 208.126 136.012 208.119 136.012 208.112C136.012 208.105 136.111 208.098 136.303 208.091C136.516 208.083 136.799 208.083 137.161 208.069C137.934 208.062 139.047 208.048 140.466 208.034C143.352 208.02 147.494 207.998 152.607 207.977C162.875 207.963 177.037 207.942 192.674 207.92C208.312 207.942 222.466 207.963 232.735 207.977C237.848 208.005 241.99 208.02 244.876 208.034C246.294 208.048 247.401 208.062 248.181 208.069C248.542 208.076 248.826 208.083 249.039 208.091C249.23 208.112 249.33 208.119 249.33 208.119Z" fill="#263238"/>
  <path d="M53.4016 55.4578C52.579 55.2592 48.6147 54.2806 40.9558 52.4013L41.0479 52.3871C38.3106 54.1317 34.6016 55.5429 30.3041 55.6067C28.1624 55.5996 25.9002 55.3443 23.6451 54.6352C21.3899 53.9331 19.1702 52.7701 17.1562 51.1957C13.1211 48.0754 9.98655 43.0758 9.30575 37.3245C8.95826 34.4665 9.19228 31.4597 10.0787 28.5805C10.9865 25.7084 12.5466 22.9923 14.6528 20.7017C15.7166 19.489 16.9789 18.4891 18.2554 17.5601C18.9291 17.1417 19.5886 16.7162 20.2836 16.3474L21.3403 15.8368L21.865 15.5815L22.4111 15.3829C25.3116 14.2554 28.3965 13.8228 31.3608 14.0213C34.3251 14.2128 37.1688 15.0425 39.6509 16.3474C42.1401 17.6523 44.2746 19.4252 45.9483 21.4321C47.629 23.4461 48.8488 25.6942 49.6217 27.9635C50.3947 30.2399 50.7493 32.5234 50.7706 34.6864C50.799 39.0265 49.4374 42.7496 47.785 45.4728V45.3593C51.267 51.6071 53.0115 54.7628 53.4016 55.4578C53.0045 54.7699 51.1961 51.6496 47.6077 45.4728L47.5723 45.416L47.6077 45.3593C49.2175 42.6574 50.5295 38.9697 50.4798 34.6935C50.4515 32.566 50.0898 30.3108 49.3168 28.077C48.5438 25.8431 47.3382 23.6376 45.6788 21.6661C44.0264 19.6947 41.9273 17.9643 39.4807 16.6878C37.0412 15.4113 34.2541 14.6029 31.3395 14.4185C28.4319 14.227 25.4038 14.6596 22.5671 15.7659L22.0282 15.9644L21.5105 16.2127L20.4751 16.7162C19.7943 17.0778 19.1489 17.4962 18.4823 17.9076C17.2271 18.8153 15.9932 19.801 14.9507 20.9853C12.887 23.2263 11.3552 25.8927 10.4617 28.7081C9.58941 31.5306 9.35539 34.4736 9.69579 37.2819C10.3553 42.9269 13.4189 47.8414 17.376 50.9192C19.3546 52.4722 21.5246 53.6211 23.7443 54.3232C25.964 55.0252 28.1908 55.2876 30.297 55.3089C34.5307 55.2663 38.1971 53.8977 40.9203 52.1957L40.9628 52.1673L41.0125 52.1815C48.636 54.1955 52.579 55.238 53.4016 55.4578Z" fill="#263238"/>
  <path d="M28.2544 25.5528L28.9139 35.9492C28.9706 36.8002 29.6443 37.4739 30.4953 37.5235C31.3889 37.5802 32.176 36.9207 32.2753 36.0272L33.4313 25.5741C33.5164 24.7798 32.8923 24.0919 32.098 24.1061L29.5592 24.1416C28.8004 24.1557 28.2047 24.8011 28.2544 25.5528Z" fill="#15C000" fill-opacity="0.84"/>
  <path d="M33.254 43.3816C32.8143 44.7148 31.3747 45.4311 30.0485 44.9914C28.7153 44.5517 27.9991 43.1121 28.4387 41.786C28.8784 40.4527 30.318 39.7365 31.6442 40.1762C32.9774 40.6088 33.6936 42.0484 33.254 43.3816Z" fill="#15C000" fill-opacity="0.84"/>
</svg>
