<svg width="37" height="36" viewBox="0 0 37 36" fill="none" xmlns="http://www.w3.org/2000/svg">
  <path d="M9.8489 35.9995C9.49318 35.2123 9.14369 34.4221 8.77501 33.6412C8.72782 33.5416 8.59455 33.4643 8.48411 33.4156C4.03039 31.4529 1.29251 28.0902 0.257505 23.3394C-0.07747 21.8024 0.0122367 20.2416 0.00756985 18.6596C1.0545 18.6596 2.08898 18.6596 3.16909 18.6596C3.16909 19.2948 3.12761 19.9383 3.17895 20.5735C3.25465 21.5152 3.29717 22.476 3.52689 23.3855C4.68893 27.9948 8.84294 31.2414 13.5927 31.2823C16.5443 31.3077 19.4968 31.3103 22.4483 31.2818C27.809 31.2294 32.3104 27.0718 32.7734 21.734C32.8611 20.7244 32.7859 19.7008 32.7859 18.6331C33.9065 18.6331 34.9555 18.6331 36.0039 18.6331C36.0039 19.6645 36.0039 20.6953 36.0039 21.7267C35.922 22.2567 35.867 22.7923 35.754 23.3155C34.7252 28.0772 31.9868 31.4509 27.5243 33.4187C27.4221 33.4638 27.291 33.5229 27.249 33.6116C26.8761 34.4029 26.5209 35.2025 26.1605 36C20.7237 35.9995 15.2863 35.9995 9.8489 35.9995Z" fill="white"/>
  <path d="M28.5515 0.000518799C28.5126 6.30127 23.2707 10.6337 18.0117 10.5206C17.9956 9.6531 18.1139 8.80218 18.327 7.96422C19.4216 3.65621 23.056 0.518538 27.4745 0.0591134C27.5533 0.0508168 27.6301 0.0202232 27.7078 0.000518799C27.9889 0.000518799 28.2705 0.000518799 28.5515 0.000518799Z" fill="white"/>
  <path d="M8.30219 0.000518649C9.07792 0.16334 9.87336 0.263417 10.6263 0.499352C13.305 1.33938 15.318 3.02204 16.6916 5.46642C16.7658 5.59865 16.8 5.81073 16.7486 5.94659C16.2379 7.30672 15.9517 8.70884 15.8993 10.1597C15.8977 10.2059 15.8879 10.2515 15.8817 10.2971C11.891 9.6308 7.48705 5.79673 7.45801 0C7.73957 0.000518538 8.02114 0.000518649 8.30219 0.000518649Z" fill="white"/>
  <path d="M5.28038 18.6492C13.7854 18.6492 22.2407 18.6492 30.681 18.6492C30.9817 21.7713 30.4684 24.6259 28.0774 26.8727C26.5015 28.3537 24.6198 29.146 22.4575 29.1688C19.4935 29.2004 16.5285 29.1989 13.5645 29.1719C9.05378 29.131 5.33638 25.3949 5.28194 20.8815C5.2726 20.1463 5.28038 19.4104 5.28038 18.6492Z" fill="white"/>
  <path d="M5.32031 16.5082C5.40846 14.671 6.93711 13.0091 8.76911 12.7208C9.70403 12.5735 10.583 12.7084 11.4323 13.1196C11.5428 13.173 11.7253 13.1626 11.8399 13.1081C13.1186 12.5025 14.3885 12.503 15.6672 13.1102C15.7808 13.1641 15.9638 13.1704 16.0753 13.117C17.3649 12.4999 18.6447 12.4999 19.9343 13.1164C20.0457 13.1699 20.2288 13.1647 20.3418 13.1107C21.62 12.502 22.8946 12.4921 24.1624 13.1206C24.3517 13.2144 24.4772 13.1771 24.6436 13.0973C27.3016 11.8237 30.3522 13.4867 30.6955 16.3926C30.6996 16.4258 30.696 16.4595 30.696 16.5082C22.2319 16.5082 13.7766 16.5082 5.32031 16.5082Z" fill="white"/>
</svg>
