<svg width="26" height="26" viewBox="0 0 26 26" fill="none" xmlns="http://www.w3.org/2000/svg">
  <path d="M14.2703 0V2.62995C19.9914 3.333 24.0444 8.52779 23.3407 14.2434C22.7412 18.9825 19.014 22.7451 14.2703 23.305V25.9089C21.438 25.1928 26.6509 18.8393 25.9341 11.6785C25.3477 5.49424 20.4345 0.611918 14.2703 0V0ZM11.6638 0.0390586C9.12255 0.28643 6.69856 1.26289 4.71766 2.90336L6.58127 4.83025C8.04088 3.65849 9.80023 2.90336 11.6638 2.64296V0.0390586V0.0390586ZM2.88012 4.73911C1.25064 6.71462 0.247875 9.13071 0 11.6785H2.60644C2.85406 9.82975 3.58386 8.07211 4.74373 6.6009L2.88012 4.73911ZM0.0130322 14.2824C0.273677 16.8343 1.27716 19.2429 2.89315 21.2218L4.74373 19.36C3.59289 17.8883 2.85921 16.1346 2.61948 14.2824H0.0130322V14.2824ZM6.58127 21.2739L4.71766 23.0576C6.69176 24.7016 9.10857 25.7253 11.6638 26V23.3961C9.80987 23.1566 8.05444 22.4236 6.58127 21.2739V21.2739ZM13.6187 6.47071V13.306L19.4832 16.7822L18.5057 18.3836L11.6638 14.2824V6.47071H13.6187Z" fill="#AAACAE"/>
</svg>
