<svg width="25" height="26" viewBox="0 0 25 26" fill="none"  xmlns="http://www.w3.org/2000/svg">
  <path d="M9.0919 23.5546V19.741C9.09188 18.7746 9.8777 17.9895 10.8511 17.9834H14.425C15.4027 17.9834 16.1953 18.7703 16.1953 19.741V19.741V23.5435C16.1953 24.3817 16.8764 25.0629 17.7207 25.069H20.159C21.2978 25.0719 22.3909 24.6248 23.1972 23.8264C24.0035 23.028 24.4567 21.9438 24.4567 20.8132V9.98044C24.4566 9.06716 24.0489 8.20086 23.3433 7.61492L15.0597 1.03787C13.6117 -0.112528 11.5436 -0.0753661 10.1385 1.1263L2.03303 7.61492C1.29406 8.18359 0.852392 9.05245 0.830566 9.98044V20.8022C0.830566 23.1587 2.7547 25.069 5.12824 25.069H7.51089C7.91736 25.0719 8.30821 24.9137 8.59668 24.6293C8.88515 24.345 9.04738 23.9581 9.04737 23.5546H9.0919Z" fill="#AAACAE"/>
</svg>
